<svg width="361" height="56" viewBox="0 0 361 56" fill="none" xmlns="http://www.w3.org/2000/svg">
<path opacity="0.7" d="M1.40909 20V8.36364H8.38636V9.61364H2.81818V13.5455H7.86364V14.7955H2.81818V20H1.40909ZM10.6179 20V11.2727H11.9588V20H10.6179ZM11.2997 9.81818C11.0384 9.81818 10.813 9.72917 10.6236 9.55114C10.438 9.37311 10.3452 9.15909 10.3452 8.90909C10.3452 8.65909 10.438 8.44508 10.6236 8.26705C10.813 8.08902 11.0384 8 11.2997 8C11.5611 8 11.7846 8.08902 11.9702 8.26705C12.1596 8.44508 12.2543 8.65909 12.2543 8.90909C12.2543 9.15909 12.1596 9.37311 11.9702 9.55114C11.7846 9.72917 11.5611 9.81818 11.2997 9.81818ZM15.7557 14.75V20H14.4148V11.2727H15.7102V12.6364H15.8239C16.0284 12.1932 16.339 11.8371 16.7557 11.5682C17.1723 11.2955 17.7102 11.1591 18.3693 11.1591C18.9602 11.1591 19.4773 11.2803 19.9205 11.5227C20.3636 11.7614 20.7083 12.125 20.9545 12.6136C21.2008 13.0985 21.3239 13.7121 21.3239 14.4545V20H19.983V14.5455C19.983 13.8598 19.8049 13.3258 19.4489 12.9432C19.0928 12.5568 18.6042 12.3636 17.983 12.3636C17.5549 12.3636 17.1723 12.4564 16.8352 12.642C16.5019 12.8277 16.2386 13.0985 16.0455 13.4545C15.8523 13.8106 15.7557 14.2424 15.7557 14.75ZM29.956 13.2273L28.7514 13.5682C28.6757 13.3674 28.5639 13.1723 28.4162 12.983C28.2723 12.7898 28.0753 12.6307 27.8253 12.5057C27.5753 12.3807 27.2552 12.3182 26.8651 12.3182C26.331 12.3182 25.8859 12.4413 25.5298 12.6875C25.1776 12.9299 25.0014 13.2386 25.0014 13.6136C25.0014 13.947 25.1226 14.2102 25.3651 14.4034C25.6075 14.5966 25.9863 14.7576 26.5014 14.8864L27.7969 15.2045C28.5772 15.3939 29.1586 15.6837 29.5412 16.0739C29.9238 16.4602 30.1151 16.9583 30.1151 17.5682C30.1151 18.0682 29.9711 18.5152 29.6832 18.9091C29.3991 19.303 29.0014 19.6136 28.4901 19.8409C27.9787 20.0682 27.384 20.1818 26.706 20.1818C25.8158 20.1818 25.0791 19.9886 24.4957 19.6023C23.9124 19.2159 23.5431 18.6515 23.3878 17.9091L24.6605 17.5909C24.7817 18.0606 25.0109 18.4129 25.348 18.6477C25.6889 18.8826 26.134 19 26.6832 19C27.3082 19 27.8045 18.8674 28.1719 18.6023C28.5431 18.3333 28.7287 18.0114 28.7287 17.6364C28.7287 17.3333 28.6226 17.0795 28.4105 16.875C28.1984 16.6667 27.8726 16.5114 27.4332 16.4091L25.9787 16.0682C25.1795 15.8788 24.5923 15.5852 24.2173 15.1875C23.8461 14.786 23.6605 14.2841 23.6605 13.6818C23.6605 13.1894 23.7988 12.7538 24.0753 12.375C24.3556 11.9962 24.7363 11.6989 25.2173 11.483C25.7022 11.267 26.2514 11.1591 26.8651 11.1591C27.7287 11.1591 28.4067 11.3485 28.8991 11.7273C29.3954 12.1061 29.7476 12.6061 29.956 13.2273ZM35.929 11.2727V12.4091H31.4062V11.2727H35.929ZM32.7244 9.18182H34.0653V17.5C34.0653 17.8788 34.1203 18.1629 34.2301 18.3523C34.3438 18.5379 34.4877 18.6629 34.6619 18.7273C34.84 18.7879 35.0275 18.8182 35.2244 18.8182C35.3722 18.8182 35.4934 18.8106 35.5881 18.7955C35.6828 18.7765 35.7585 18.7614 35.8153 18.75L36.0881 19.9545C35.9972 19.9886 35.8703 20.0227 35.7074 20.0568C35.5445 20.0947 35.3381 20.1136 35.0881 20.1136C34.7093 20.1136 34.3381 20.0322 33.9744 19.8693C33.6146 19.7064 33.3153 19.4583 33.0767 19.125C32.8419 18.7917 32.7244 18.3712 32.7244 17.8636V9.18182ZM37.946 20V11.2727H39.2415V12.5909H39.3324C39.4915 12.1591 39.7794 11.8087 40.196 11.5398C40.6127 11.2708 41.0824 11.1364 41.6051 11.1364C41.7036 11.1364 41.8267 11.1383 41.9744 11.142C42.1222 11.1458 42.2339 11.1515 42.3097 11.1591V12.5227C42.2642 12.5114 42.16 12.4943 41.9972 12.4716C41.8381 12.4451 41.6695 12.4318 41.4915 12.4318C41.0672 12.4318 40.6884 12.5208 40.3551 12.6989C40.0256 12.8731 39.7642 13.1155 39.571 13.4261C39.3816 13.733 39.2869 14.0833 39.2869 14.4773V20H37.946ZM47.2926 20.1818C46.4517 20.1818 45.7263 19.9962 45.1165 19.625C44.5104 19.25 44.0426 18.7273 43.7131 18.0568C43.3873 17.3826 43.2244 16.5985 43.2244 15.7045C43.2244 14.8106 43.3873 14.0227 43.7131 13.3409C44.0426 12.6553 44.5009 12.1212 45.0881 11.7386C45.679 11.3523 46.3684 11.1591 47.1562 11.1591C47.6108 11.1591 48.0597 11.2348 48.5028 11.3864C48.946 11.5379 49.3494 11.7841 49.7131 12.125C50.0767 12.4621 50.3665 12.9091 50.5824 13.4659C50.7983 14.0227 50.9062 14.7083 50.9062 15.5227V16.0909H44.179V14.9318H49.5426C49.5426 14.4394 49.4441 14 49.2472 13.6136C49.054 13.2273 48.7775 12.9223 48.4176 12.6989C48.0616 12.4754 47.6411 12.3636 47.1562 12.3636C46.6222 12.3636 46.16 12.4962 45.7699 12.7614C45.3835 13.0227 45.0862 13.3636 44.8778 13.7841C44.6695 14.2045 44.5653 14.6553 44.5653 15.1364V15.9091C44.5653 16.5682 44.679 17.1269 44.9062 17.5852C45.1373 18.0398 45.4574 18.3864 45.8665 18.625C46.2756 18.8598 46.7509 18.9773 47.2926 18.9773C47.6449 18.9773 47.9631 18.928 48.2472 18.8295C48.535 18.7273 48.7831 18.5758 48.9915 18.375C49.1998 18.1705 49.3608 17.9167 49.4744 17.6136L50.7699 17.9773C50.6335 18.4167 50.4044 18.803 50.0824 19.1364C49.7604 19.4659 49.3627 19.7235 48.8892 19.9091C48.4157 20.0909 47.8835 20.1818 47.2926 20.1818ZM56.6051 20.1818C55.7642 20.1818 55.0388 19.9962 54.429 19.625C53.8229 19.25 53.3551 18.7273 53.0256 18.0568C52.6998 17.3826 52.5369 16.5985 52.5369 15.7045C52.5369 14.8106 52.6998 14.0227 53.0256 13.3409C53.3551 12.6553 53.8134 12.1212 54.4006 11.7386C54.9915 11.3523 55.6809 11.1591 56.4688 11.1591C56.9233 11.1591 57.3722 11.2348 57.8153 11.3864C58.2585 11.5379 58.6619 11.7841 59.0256 12.125C59.3892 12.4621 59.679 12.9091 59.8949 13.4659C60.1108 14.0227 60.2188 14.7083 60.2188 15.5227V16.0909H53.4915V14.9318H58.8551C58.8551 14.4394 58.7566 14 58.5597 13.6136C58.3665 13.2273 58.09 12.9223 57.7301 12.6989C57.3741 12.4754 56.9536 12.3636 56.4688 12.3636C55.9347 12.3636 55.4725 12.4962 55.0824 12.7614C54.696 13.0227 54.3987 13.3636 54.1903 13.7841C53.982 14.2045 53.8778 14.6553 53.8778 15.1364V15.9091C53.8778 16.5682 53.9915 17.1269 54.2188 17.5852C54.4498 18.0398 54.7699 18.3864 55.179 18.625C55.5881 18.8598 56.0634 18.9773 56.6051 18.9773C56.9574 18.9773 57.2756 18.928 57.5597 18.8295C57.8475 18.7273 58.0956 18.5758 58.304 18.375C58.5123 18.1705 58.6733 17.9167 58.7869 17.6136L60.0824 17.9773C59.946 18.4167 59.7169 18.803 59.3949 19.1364C59.0729 19.4659 58.6752 19.7235 58.2017 19.9091C57.7282 20.0909 57.196 20.1818 56.6051 20.1818ZM66.054 11.2727V12.4091H61.5312V11.2727H66.054ZM62.8494 9.18182H64.1903V17.5C64.1903 17.8788 64.2453 18.1629 64.3551 18.3523C64.4688 18.5379 64.6127 18.6629 64.7869 18.7273C64.965 18.7879 65.1525 18.8182 65.3494 18.8182C65.4972 18.8182 65.6184 18.8106 65.7131 18.7955C65.8078 18.7765 65.8835 18.7614 65.9403 18.75L66.2131 19.9545C66.1222 19.9886 65.9953 20.0227 65.8324 20.0568C65.6695 20.0947 65.4631 20.1136 65.2131 20.1136C64.8343 20.1136 64.4631 20.0322 64.0994 19.8693C63.7396 19.7064 63.4403 19.4583 63.2017 19.125C62.9669 18.7917 62.8494 18.3712 62.8494 17.8636V9.18182ZM76.6392 8.36364V20H75.2301V9.84091H75.1619L72.321 11.7273V10.2955L75.2301 8.36364H76.6392ZM84.0767 8.36364V20H82.6676V9.84091H82.5994L79.7585 11.7273V10.2955L82.6676 8.36364H84.0767ZM91.1506 20.1591C90.3703 20.1591 89.6809 20.0208 89.0824 19.7443C88.4877 19.464 88.0237 19.0795 87.6903 18.5909C87.357 18.0985 87.1922 17.5379 87.196 16.9091C87.1922 16.4167 87.2888 15.9621 87.4858 15.5455C87.6828 15.125 87.9517 14.7746 88.2926 14.4943C88.6373 14.2102 89.0218 14.0303 89.446 13.9545V13.8864C88.8892 13.7424 88.446 13.4299 88.1165 12.9489C87.7869 12.464 87.6241 11.9129 87.6278 11.2955C87.6241 10.7045 87.7737 10.1761 88.0767 9.71023C88.3797 9.24432 88.7964 8.87689 89.3267 8.60795C89.8608 8.33901 90.4688 8.20455 91.1506 8.20455C91.8248 8.20455 92.4271 8.33901 92.9574 8.60795C93.4877 8.87689 93.9044 9.24432 94.2074 9.71023C94.5142 10.1761 94.6695 10.7045 94.6733 11.2955C94.6695 11.9129 94.5009 12.464 94.1676 12.9489C93.8381 13.4299 93.4006 13.7424 92.8551 13.8864V13.9545C93.2756 14.0303 93.6544 14.2102 93.9915 14.4943C94.3286 14.7746 94.5975 15.125 94.7983 15.5455C94.9991 15.9621 95.1013 16.4167 95.1051 16.9091C95.1013 17.5379 94.9309 18.0985 94.5938 18.5909C94.2604 19.0795 93.7964 19.464 93.2017 19.7443C92.6108 20.0208 91.9271 20.1591 91.1506 20.1591ZM91.1506 18.9091C91.6771 18.9091 92.1316 18.8239 92.5142 18.6534C92.8968 18.483 93.1922 18.2424 93.4006 17.9318C93.6089 17.6212 93.715 17.2576 93.7188 16.8409C93.715 16.4015 93.6013 16.0133 93.3778 15.6761C93.1544 15.339 92.8494 15.0739 92.4631 14.8807C92.0805 14.6875 91.643 14.5909 91.1506 14.5909C90.6544 14.5909 90.2112 14.6875 89.821 14.8807C89.4347 15.0739 89.1297 15.339 88.9062 15.6761C88.6866 16.0133 88.5786 16.4015 88.5824 16.8409C88.5786 17.2576 88.679 17.6212 88.8835 17.9318C89.0919 18.2424 89.3892 18.483 89.7756 18.6534C90.1619 18.8239 90.6203 18.9091 91.1506 18.9091ZM91.1506 13.3864C91.5672 13.3864 91.9366 13.303 92.2585 13.1364C92.5843 12.9697 92.84 12.7367 93.0256 12.4375C93.2112 12.1383 93.3059 11.7879 93.3097 11.3864C93.3059 10.9924 93.2131 10.6496 93.0312 10.358C92.8494 10.0625 92.5975 9.83523 92.2756 9.67614C91.9536 9.51326 91.5786 9.43182 91.1506 9.43182C90.715 9.43182 90.3343 9.51326 90.0085 9.67614C89.6828 9.83523 89.4309 10.0625 89.2528 10.358C89.0748 10.6496 88.9877 10.9924 88.9915 11.3864C88.9877 11.7879 89.0767 12.1383 89.2585 12.4375C89.4441 12.7367 89.6998 12.9697 90.0256 13.1364C90.3513 13.303 90.7263 13.3864 91.1506 13.3864ZM101.783 20V18.9773L105.624 14.7727C106.074 14.2803 106.446 13.8523 106.737 13.4886C107.029 13.1212 107.245 12.7765 107.385 12.4545C107.529 12.1288 107.601 11.7879 107.601 11.4318C107.601 11.0227 107.502 10.6686 107.305 10.3693C107.112 10.0701 106.847 9.83901 106.51 9.67614C106.173 9.51326 105.794 9.43182 105.374 9.43182C104.927 9.43182 104.536 9.52462 104.203 9.71023C103.874 9.89205 103.618 10.1477 103.436 10.4773C103.258 10.8068 103.169 11.1932 103.169 11.6364H101.828C101.828 10.9545 101.985 10.3561 102.3 9.84091C102.614 9.32576 103.042 8.92424 103.584 8.63636C104.129 8.34848 104.741 8.20455 105.419 8.20455C106.101 8.20455 106.705 8.34848 107.232 8.63636C107.758 8.92424 108.171 9.3125 108.47 9.80114C108.769 10.2898 108.919 10.8333 108.919 11.4318C108.919 11.8598 108.841 12.2784 108.686 12.6875C108.535 13.0928 108.269 13.5455 107.891 14.0455C107.516 14.5417 106.995 15.1477 106.328 15.8636L103.714 18.6591V18.75H109.124V20H101.783ZM115.107 20.1591C114.44 20.1591 113.839 20.0265 113.305 19.7614C112.771 19.4962 112.343 19.1326 112.021 18.6705C111.699 18.2083 111.523 17.6818 111.493 17.0909H112.857C112.91 17.6174 113.148 18.053 113.572 18.3977C114 18.7386 114.512 18.9091 115.107 18.9091C115.584 18.9091 116.008 18.7973 116.379 18.5739C116.754 18.3504 117.048 18.0436 117.26 17.6534C117.476 17.2595 117.584 16.8144 117.584 16.3182C117.584 15.8106 117.472 15.358 117.249 14.9602C117.029 14.5587 116.726 14.2424 116.339 14.0114C115.953 13.7803 115.512 13.6629 115.016 13.6591C114.66 13.6553 114.294 13.7102 113.919 13.8239C113.544 13.9337 113.235 14.0758 112.993 14.25L111.675 14.0909L112.379 8.36364H118.425V9.61364H113.561L113.152 13.0455H113.22C113.459 12.8561 113.758 12.6989 114.118 12.5739C114.478 12.4489 114.853 12.3864 115.243 12.3864C115.955 12.3864 116.589 12.5568 117.146 12.8977C117.707 13.2348 118.146 13.697 118.464 14.2841C118.786 14.8712 118.947 15.5417 118.947 16.2955C118.947 17.0379 118.781 17.7008 118.447 18.2841C118.118 18.8636 117.663 19.322 117.084 19.6591C116.504 19.9924 115.845 20.1591 115.107 20.1591ZM125.068 20.1591C124.591 20.1515 124.114 20.0606 123.636 19.8864C123.159 19.7121 122.723 19.4186 122.33 19.0057C121.936 18.589 121.619 18.0265 121.381 17.3182C121.142 16.6061 121.023 15.7121 121.023 14.6364C121.023 13.6061 121.119 12.6932 121.312 11.8977C121.506 11.0985 121.786 10.4261 122.153 9.88068C122.521 9.33144 122.964 8.91477 123.483 8.63068C124.006 8.34659 124.595 8.20455 125.25 8.20455C125.902 8.20455 126.481 8.33523 126.989 8.59659C127.5 8.85417 127.917 9.21401 128.239 9.67614C128.561 10.1383 128.769 10.6705 128.864 11.2727H127.477C127.348 10.75 127.098 10.3163 126.727 9.97159C126.356 9.62689 125.864 9.45455 125.25 9.45455C124.348 9.45455 123.638 9.84659 123.119 10.6307C122.604 11.4148 122.345 12.5152 122.341 13.9318H122.432C122.644 13.6098 122.896 13.3352 123.188 13.108C123.483 12.8769 123.809 12.6989 124.165 12.5739C124.521 12.4489 124.898 12.3864 125.295 12.3864C125.962 12.3864 126.572 12.553 127.125 12.8864C127.678 13.2159 128.121 13.6723 128.455 14.2557C128.788 14.8352 128.955 15.5 128.955 16.25C128.955 16.9697 128.794 17.6288 128.472 18.2273C128.15 18.822 127.697 19.2955 127.114 19.6477C126.534 19.9962 125.852 20.1667 125.068 20.1591ZM125.068 18.9091C125.545 18.9091 125.973 18.7898 126.352 18.5511C126.735 18.3125 127.036 17.9924 127.256 17.5909C127.479 17.1894 127.591 16.7424 127.591 16.25C127.591 15.7689 127.483 15.3314 127.267 14.9375C127.055 14.5398 126.761 14.2235 126.386 13.9886C126.015 13.7538 125.591 13.6364 125.114 13.6364C124.754 13.6364 124.419 13.7083 124.108 13.8523C123.797 13.9924 123.525 14.1856 123.29 14.4318C123.059 14.678 122.877 14.9602 122.744 15.2784C122.612 15.5928 122.545 15.9242 122.545 16.2727C122.545 16.7348 122.653 17.1667 122.869 17.5682C123.089 17.9697 123.388 18.2936 123.767 18.5398C124.15 18.786 124.583 18.9091 125.068 18.9091ZM135.28 8.36364V20H133.871V9.84091H133.803L130.962 11.7273V10.2955L133.871 8.36364H135.28ZM143.331 20V8.36364H150.308V9.61364H144.74V13.5455H149.786V14.7955H144.74V20H143.331ZM152.54 20V11.2727H153.881V20H152.54ZM153.222 9.81818C152.96 9.81818 152.735 9.72917 152.545 9.55114C152.36 9.37311 152.267 9.15909 152.267 8.90909C152.267 8.65909 152.36 8.44508 152.545 8.26705C152.735 8.08902 152.96 8 153.222 8C153.483 8 153.706 8.08902 153.892 8.26705C154.081 8.44508 154.176 8.65909 154.176 8.90909C154.176 9.15909 154.081 9.37311 153.892 9.55114C153.706 9.72917 153.483 9.81818 153.222 9.81818ZM157.678 14.75V20H156.337V11.2727H157.632V12.6364H157.746C157.95 12.1932 158.261 11.8371 158.678 11.5682C159.094 11.2955 159.632 11.1591 160.291 11.1591C160.882 11.1591 161.399 11.2803 161.842 11.5227C162.286 11.7614 162.63 12.125 162.876 12.6136C163.123 13.0985 163.246 13.7121 163.246 14.4545V20H161.905V14.5455C161.905 13.8598 161.727 13.3258 161.371 12.9432C161.015 12.5568 160.526 12.3636 159.905 12.3636C159.477 12.3636 159.094 12.4564 158.757 12.642C158.424 12.8277 158.161 13.0985 157.967 13.4545C157.774 13.8106 157.678 14.2424 157.678 14.75ZM169.491 11.2727V12.4091H164.969V11.2727H169.491ZM166.287 9.18182H167.628V17.5C167.628 17.8788 167.683 18.1629 167.793 18.3523C167.906 18.5379 168.05 18.6629 168.224 18.7273C168.402 18.7879 168.59 18.8182 168.787 18.8182C168.935 18.8182 169.056 18.8106 169.151 18.7955C169.245 18.7765 169.321 18.7614 169.378 18.75L169.651 19.9545C169.56 19.9886 169.433 20.0227 169.27 20.0568C169.107 20.0947 168.901 20.1136 168.651 20.1136C168.272 20.1136 167.901 20.0322 167.537 19.8693C167.177 19.7064 166.878 19.4583 166.639 19.125C166.404 18.7917 166.287 18.3712 166.287 17.8636V9.18182ZM174.96 20.1818C174.172 20.1818 173.481 19.9943 172.886 19.6193C172.295 19.2443 171.833 18.7197 171.5 18.0455C171.17 17.3712 171.006 16.5833 171.006 15.6818C171.006 14.7727 171.17 13.9792 171.5 13.3011C171.833 12.6231 172.295 12.0966 172.886 11.7216C173.481 11.3466 174.172 11.1591 174.96 11.1591C175.748 11.1591 176.438 11.3466 177.028 11.7216C177.623 12.0966 178.085 12.6231 178.415 13.3011C178.748 13.9792 178.915 14.7727 178.915 15.6818C178.915 16.5833 178.748 17.3712 178.415 18.0455C178.085 18.7197 177.623 19.2443 177.028 19.6193C176.438 19.9943 175.748 20.1818 174.96 20.1818ZM174.96 18.9773C175.559 18.9773 176.051 18.8239 176.438 18.517C176.824 18.2102 177.11 17.8068 177.295 17.3068C177.481 16.8068 177.574 16.2652 177.574 15.6818C177.574 15.0985 177.481 14.5549 177.295 14.0511C177.11 13.5473 176.824 13.1402 176.438 12.8295C176.051 12.5189 175.559 12.3636 174.96 12.3636C174.362 12.3636 173.869 12.5189 173.483 12.8295C173.097 13.1402 172.811 13.5473 172.625 14.0511C172.439 14.5549 172.347 15.0985 172.347 15.6818C172.347 16.2652 172.439 16.8068 172.625 17.3068C172.811 17.8068 173.097 18.2102 173.483 18.517C173.869 18.8239 174.362 18.9773 174.96 18.9773ZM182.642 20L179.983 11.2727H181.392L183.278 17.9545H183.369L185.233 11.2727H186.665L188.506 17.9318H188.597L190.483 11.2727H191.892L189.233 20H187.915L186.006 13.2955H185.869L183.96 20H182.642ZM195.006 14.75V20H193.665V11.2727H194.96V12.6364H195.074C195.278 12.1932 195.589 11.8371 196.006 11.5682C196.422 11.2955 196.96 11.1591 197.619 11.1591C198.21 11.1591 198.727 11.2803 199.17 11.5227C199.614 11.7614 199.958 12.125 200.205 12.6136C200.451 13.0985 200.574 13.7121 200.574 14.4545V20H199.233V14.5455C199.233 13.8598 199.055 13.3258 198.699 12.9432C198.343 12.5568 197.854 12.3636 197.233 12.3636C196.805 12.3636 196.422 12.4564 196.085 12.642C195.752 12.8277 195.489 13.0985 195.295 13.4545C195.102 13.8106 195.006 14.2424 195.006 14.75Z" fill="white"/>
<path opacity="0.7" d="M1.40909 48V36.3636H2.81818V41.5455H9.02273V36.3636H10.4318V48H9.02273V42.7955H2.81818V48H1.40909ZM16.7301 48.1818C15.8892 48.1818 15.1638 47.9962 14.554 47.625C13.9479 47.25 13.4801 46.7273 13.1506 46.0568C12.8248 45.3826 12.6619 44.5985 12.6619 43.7045C12.6619 42.8106 12.8248 42.0227 13.1506 41.3409C13.4801 40.6553 13.9384 40.1212 14.5256 39.7386C15.1165 39.3523 15.8059 39.1591 16.5938 39.1591C17.0483 39.1591 17.4972 39.2348 17.9403 39.3864C18.3835 39.5379 18.7869 39.7841 19.1506 40.125C19.5142 40.4621 19.804 40.9091 20.0199 41.4659C20.2358 42.0227 20.3438 42.7083 20.3438 43.5227V44.0909H13.6165V42.9318H18.9801C18.9801 42.4394 18.8816 42 18.6847 41.6136C18.4915 41.2273 18.215 40.9223 17.8551 40.6989C17.4991 40.4754 17.0786 40.3636 16.5938 40.3636C16.0597 40.3636 15.5975 40.4962 15.2074 40.7614C14.821 41.0227 14.5237 41.3636 14.3153 41.7841C14.107 42.2045 14.0028 42.6553 14.0028 43.1364V43.9091C14.0028 44.5682 14.1165 45.1269 14.3438 45.5852C14.5748 46.0398 14.8949 46.3864 15.304 46.625C15.7131 46.8598 16.1884 46.9773 16.7301 46.9773C17.0824 46.9773 17.4006 46.928 17.6847 46.8295C17.9725 46.7273 18.2206 46.5758 18.429 46.375C18.6373 46.1705 18.7983 45.9167 18.9119 45.6136L20.2074 45.9773C20.071 46.4167 19.8419 46.803 19.5199 47.1364C19.1979 47.4659 18.8002 47.7235 18.3267 47.9091C17.8532 48.0909 17.321 48.1818 16.7301 48.1818ZM23.7244 36.3636V48H22.3835V36.3636H23.7244ZM27.5213 36.3636V48H26.1804V36.3636H27.5213ZM33.5227 48.1818C32.7348 48.1818 32.0436 47.9943 31.4489 47.6193C30.858 47.2443 30.3958 46.7197 30.0625 46.0455C29.733 45.3712 29.5682 44.5833 29.5682 43.6818C29.5682 42.7727 29.733 41.9792 30.0625 41.3011C30.3958 40.6231 30.858 40.0966 31.4489 39.7216C32.0436 39.3466 32.7348 39.1591 33.5227 39.1591C34.3106 39.1591 35 39.3466 35.5909 39.7216C36.1856 40.0966 36.6477 40.6231 36.9773 41.3011C37.3106 41.9792 37.4773 42.7727 37.4773 43.6818C37.4773 44.5833 37.3106 45.3712 36.9773 46.0455C36.6477 46.7197 36.1856 47.2443 35.5909 47.6193C35 47.9943 34.3106 48.1818 33.5227 48.1818ZM33.5227 46.9773C34.1212 46.9773 34.6136 46.8239 35 46.517C35.3864 46.2102 35.6723 45.8068 35.858 45.3068C36.0436 44.8068 36.1364 44.2652 36.1364 43.6818C36.1364 43.0985 36.0436 42.5549 35.858 42.0511C35.6723 41.5473 35.3864 41.1402 35 40.8295C34.6136 40.5189 34.1212 40.3636 33.5227 40.3636C32.9242 40.3636 32.4318 40.5189 32.0455 40.8295C31.6591 41.1402 31.3731 41.5473 31.1875 42.0511C31.0019 42.5549 30.9091 43.0985 30.9091 43.6818C30.9091 44.2652 31.0019 44.8068 31.1875 45.3068C31.3731 45.8068 31.6591 46.2102 32.0455 46.517C32.4318 46.8239 32.9242 46.9773 33.5227 46.9773ZM46.2287 51.0682C45.0696 51.0682 44.045 50.9091 43.1548 50.5909C42.2647 50.2765 41.5166 49.8125 40.9105 49.1989C40.3045 48.5852 39.8461 47.8333 39.5355 46.9432C39.2249 46.053 39.0696 45.0341 39.0696 43.8864C39.0696 42.7765 39.2268 41.7841 39.5412 40.9091C39.8594 40.0341 40.3196 39.2917 40.9219 38.6818C41.5279 38.0682 42.2628 37.6004 43.1264 37.2784C43.9938 36.9564 44.9749 36.7955 46.0696 36.7955C47.134 36.7955 48.0658 36.9697 48.8651 37.3182C49.6681 37.6629 50.3385 38.1307 50.8764 38.7216C51.4181 39.3087 51.8234 39.9697 52.0923 40.7045C52.3651 41.4394 52.5014 42.197 52.5014 42.9773C52.5014 43.5265 52.4749 44.0833 52.4219 44.6477C52.3688 45.2121 52.2571 45.7311 52.0866 46.2045C51.9162 46.6742 51.6529 47.053 51.2969 47.3409C50.9446 47.6288 50.4673 47.7727 49.8651 47.7727C49.5999 47.7727 49.3082 47.7311 48.9901 47.6477C48.6719 47.5644 48.3897 47.4261 48.1435 47.233C47.8973 47.0398 47.7514 46.7803 47.706 46.4545H47.6378C47.5469 46.6742 47.4067 46.8826 47.2173 47.0795C47.0317 47.2765 46.7874 47.4337 46.4844 47.5511C46.1851 47.6686 45.8196 47.7197 45.3878 47.7045C44.8954 47.6856 44.4616 47.5758 44.0866 47.375C43.7116 47.1705 43.3973 46.8939 43.1435 46.5455C42.8935 46.1932 42.7041 45.786 42.5753 45.3239C42.4503 44.858 42.3878 44.3561 42.3878 43.8182C42.3878 43.3068 42.4635 42.839 42.6151 42.4148C42.7666 41.9905 42.9768 41.6193 43.2457 41.3011C43.5185 40.983 43.8366 40.7292 44.2003 40.5398C44.5677 40.3466 44.9635 40.2273 45.3878 40.1818C45.7666 40.1439 46.1113 40.161 46.4219 40.233C46.7325 40.3011 46.9882 40.4053 47.1889 40.5455C47.3897 40.6818 47.5166 40.8333 47.5696 41H47.6378V40.3636H48.8423V45.5C48.8423 45.8182 48.9313 46.0985 49.1094 46.3409C49.2874 46.5833 49.5469 46.7045 49.8878 46.7045C50.2741 46.7045 50.5696 46.572 50.7741 46.3068C50.9825 46.0417 51.1245 45.6326 51.2003 45.0795C51.2798 44.5265 51.3196 43.8182 51.3196 42.9545C51.3196 42.447 51.2495 41.947 51.1094 41.4545C50.973 40.9583 50.7647 40.4943 50.4844 40.0625C50.2079 39.6307 49.8575 39.25 49.4332 38.9205C49.009 38.5909 48.5109 38.3333 47.9389 38.1477C47.3707 37.9583 46.7249 37.8636 46.0014 37.8636C45.1113 37.8636 44.3139 38.0019 43.6094 38.2784C42.9086 38.5511 42.312 38.9508 41.8196 39.4773C41.331 40 40.9579 40.6364 40.7003 41.3864C40.4465 42.1326 40.3196 42.9811 40.3196 43.9318C40.3196 44.8977 40.4465 45.7557 40.7003 46.5057C40.9579 47.2557 41.3366 47.8883 41.8366 48.4034C42.3404 48.9186 42.9635 49.3087 43.706 49.5739C44.4484 49.8428 45.3045 49.9773 46.2741 49.9773C46.6908 49.9773 47.1018 49.9375 47.5071 49.858C47.9124 49.7784 48.2704 49.6913 48.581 49.5966C48.8916 49.5019 49.1151 49.4318 49.2514 49.3864L49.5696 50.4318C49.3348 50.5303 49.0279 50.6288 48.6491 50.7273C48.2741 50.8258 47.8726 50.9072 47.4446 50.9716C47.0204 51.036 46.6151 51.0682 46.2287 51.0682ZM45.5696 46.5455C46.0772 46.5455 46.4882 46.4432 46.8026 46.2386C47.117 46.0341 47.3461 45.7254 47.4901 45.3125C47.634 44.8996 47.706 44.3788 47.706 43.75C47.706 43.1136 47.6264 42.6174 47.4673 42.2614C47.3082 41.9053 47.0734 41.6553 46.7628 41.5114C46.4522 41.3674 46.0696 41.2955 45.6151 41.2955C45.1832 41.2955 44.8139 41.4091 44.5071 41.6364C44.2041 41.8598 43.9711 42.1591 43.8082 42.5341C43.6491 42.9053 43.5696 43.3106 43.5696 43.75C43.5696 44.2348 43.634 44.6913 43.7628 45.1193C43.8916 45.5436 44.1018 45.8883 44.3935 46.1534C44.6851 46.4148 45.0772 46.5455 45.5696 46.5455ZM58.3949 39.2727V40.4091H53.6903V39.2727H58.3949ZM55.0994 48V38.0682C55.0994 37.5682 55.2169 37.1515 55.4517 36.8182C55.6866 36.4848 55.9915 36.2348 56.3665 36.0682C56.7415 35.9015 57.1373 35.8182 57.554 35.8182C57.8835 35.8182 58.1525 35.8447 58.3608 35.8977C58.5691 35.9508 58.7244 36 58.8267 36.0455L58.4403 37.2045C58.3722 37.1818 58.2775 37.1534 58.1562 37.1193C58.0388 37.0852 57.8835 37.0682 57.6903 37.0682C57.2472 37.0682 56.9271 37.1799 56.7301 37.4034C56.5369 37.6269 56.4403 37.9545 56.4403 38.3864V48H55.0994ZM60.2741 48V39.2727H61.6151V48H60.2741ZM60.956 37.8182C60.6946 37.8182 60.4692 37.7292 60.2798 37.5511C60.0942 37.3731 60.0014 37.1591 60.0014 36.9091C60.0014 36.6591 60.0942 36.4451 60.2798 36.267C60.4692 36.089 60.6946 36 60.956 36C61.2173 36 61.4408 36.089 61.6264 36.267C61.8158 36.4451 61.9105 36.6591 61.9105 36.9091C61.9105 37.1591 61.8158 37.3731 61.6264 37.5511C61.4408 37.7292 61.2173 37.8182 60.956 37.8182ZM65.4119 42.75V48H64.071V39.2727H65.3665V40.6364H65.4801C65.6847 40.1932 65.9953 39.8371 66.4119 39.5682C66.8286 39.2955 67.3665 39.1591 68.0256 39.1591C68.6165 39.1591 69.1335 39.2803 69.5767 39.5227C70.0199 39.7614 70.3646 40.125 70.6108 40.6136C70.857 41.0985 70.9801 41.7121 70.9801 42.4545V48H69.6392V42.5455C69.6392 41.8598 69.4612 41.3258 69.1051 40.9432C68.7491 40.5568 68.2604 40.3636 67.6392 40.3636C67.2112 40.3636 66.8286 40.4564 66.4915 40.642C66.1581 40.8277 65.8949 41.0985 65.7017 41.4545C65.5085 41.8106 65.4119 42.2424 65.4119 42.75ZM79.6122 41.2273L78.4077 41.5682C78.3319 41.3674 78.2202 41.1723 78.0724 40.983C77.9285 40.7898 77.7315 40.6307 77.4815 40.5057C77.2315 40.3807 76.9115 40.3182 76.5213 40.3182C75.9872 40.3182 75.5421 40.4413 75.1861 40.6875C74.8338 40.9299 74.6577 41.2386 74.6577 41.6136C74.6577 41.947 74.7789 42.2102 75.0213 42.4034C75.2637 42.5966 75.6425 42.7576 76.1577 42.8864L77.4531 43.2045C78.2334 43.3939 78.8149 43.6837 79.1974 44.0739C79.58 44.4602 79.7713 44.9583 79.7713 45.5682C79.7713 46.0682 79.6274 46.5152 79.3395 46.9091C79.0554 47.303 78.6577 47.6136 78.1463 47.8409C77.6349 48.0682 77.0402 48.1818 76.3622 48.1818C75.4721 48.1818 74.7353 47.9886 74.152 47.6023C73.5687 47.2159 73.1993 46.6515 73.044 45.9091L74.3168 45.5909C74.438 46.0606 74.6671 46.4129 75.0043 46.6477C75.3452 46.8826 75.7902 47 76.3395 47C76.9645 47 77.4607 46.8674 77.8281 46.6023C78.1993 46.3333 78.3849 46.0114 78.3849 45.6364C78.3849 45.3333 78.2789 45.0795 78.0668 44.875C77.8546 44.6667 77.5289 44.5114 77.0895 44.4091L75.6349 44.0682C74.8357 43.8788 74.2486 43.5852 73.8736 43.1875C73.5024 42.786 73.3168 42.2841 73.3168 41.6818C73.3168 41.1894 73.455 40.7538 73.7315 40.375C74.0118 39.9962 74.3925 39.6989 74.8736 39.483C75.3584 39.267 75.9077 39.1591 76.5213 39.1591C77.3849 39.1591 78.063 39.3485 78.5554 39.7273C79.0516 40.1061 79.4039 40.6061 79.6122 41.2273ZM83.767 48L81.108 39.2727H82.517L84.4034 45.9545H84.4943L86.358 39.2727H87.7898L89.6307 45.9318H89.7216L91.608 39.2727H93.017L90.358 48H89.0398L87.1307 41.2955H86.9943L85.0852 48H83.767ZM98.152 48.1818C97.3111 48.1818 96.5857 47.9962 95.9759 47.625C95.3698 47.25 94.902 46.7273 94.5724 46.0568C94.2467 45.3826 94.0838 44.5985 94.0838 43.7045C94.0838 42.8106 94.2467 42.0227 94.5724 41.3409C94.902 40.6553 95.3603 40.1212 95.9474 39.7386C96.5384 39.3523 97.2277 39.1591 98.0156 39.1591C98.4702 39.1591 98.919 39.2348 99.3622 39.3864C99.8054 39.5379 100.209 39.7841 100.572 40.125C100.936 40.4621 101.226 40.9091 101.442 41.4659C101.658 42.0227 101.766 42.7083 101.766 43.5227V44.0909H95.0384V42.9318H100.402C100.402 42.4394 100.304 42 100.107 41.6136C99.9134 41.2273 99.6368 40.9223 99.277 40.6989C98.9209 40.4754 98.5005 40.3636 98.0156 40.3636C97.4815 40.3636 97.0194 40.4962 96.6293 40.7614C96.2429 41.0227 95.9455 41.3636 95.7372 41.7841C95.5289 42.2045 95.4247 42.6553 95.4247 43.1364V43.9091C95.4247 44.5682 95.5384 45.1269 95.7656 45.5852C95.9967 46.0398 96.3168 46.3864 96.7259 46.625C97.1349 46.8598 97.6103 46.9773 98.152 46.9773C98.5043 46.9773 98.8224 46.928 99.1065 46.8295C99.3944 46.7273 99.6425 46.5758 99.8509 46.375C100.059 46.1705 100.22 45.9167 100.334 45.6136L101.629 45.9773C101.493 46.4167 101.264 46.803 100.942 47.1364C100.62 47.4659 100.222 47.7235 99.7486 47.9091C99.2751 48.0909 98.7429 48.1818 98.152 48.1818ZM107.464 48.1818C106.624 48.1818 105.898 47.9962 105.288 47.625C104.682 47.25 104.214 46.7273 103.885 46.0568C103.559 45.3826 103.396 44.5985 103.396 43.7045C103.396 42.8106 103.559 42.0227 103.885 41.3409C104.214 40.6553 104.673 40.1212 105.26 39.7386C105.851 39.3523 106.54 39.1591 107.328 39.1591C107.783 39.1591 108.232 39.2348 108.675 39.3864C109.118 39.5379 109.521 39.7841 109.885 40.125C110.249 40.4621 110.538 40.9091 110.754 41.4659C110.97 42.0227 111.078 42.7083 111.078 43.5227V44.0909H104.351V42.9318H109.714C109.714 42.4394 109.616 42 109.419 41.6136C109.226 41.2273 108.949 40.9223 108.589 40.6989C108.233 40.4754 107.813 40.3636 107.328 40.3636C106.794 40.3636 106.332 40.4962 105.942 40.7614C105.555 41.0227 105.258 41.3636 105.05 41.7841C104.841 42.2045 104.737 42.6553 104.737 43.1364V43.9091C104.737 44.5682 104.851 45.1269 105.078 45.5852C105.309 46.0398 105.629 46.3864 106.038 46.625C106.447 46.8598 106.923 46.9773 107.464 46.9773C107.817 46.9773 108.135 46.928 108.419 46.8295C108.707 46.7273 108.955 46.5758 109.163 46.375C109.372 46.1705 109.533 45.9167 109.646 45.6136L110.942 45.9773C110.805 46.4167 110.576 46.803 110.254 47.1364C109.932 47.4659 109.535 47.7235 109.061 47.9091C108.588 48.0909 108.055 48.1818 107.464 48.1818ZM116.913 39.2727V40.4091H112.391V39.2727H116.913ZM113.709 37.1818H115.05V45.5C115.05 45.8788 115.105 46.1629 115.214 46.3523C115.328 46.5379 115.472 46.6629 115.646 46.7273C115.824 46.7879 116.012 46.8182 116.209 46.8182C116.357 46.8182 116.478 46.8106 116.572 46.7955C116.667 46.7765 116.743 46.7614 116.8 46.75L117.072 47.9545C116.982 47.9886 116.855 48.0227 116.692 48.0568C116.529 48.0947 116.322 48.1136 116.072 48.1136C115.694 48.1136 115.322 48.0322 114.959 47.8693C114.599 47.7064 114.3 47.4583 114.061 47.125C113.826 46.7917 113.709 46.3712 113.709 45.8636V37.1818ZM119.908 48.0909C119.627 48.0909 119.387 47.9905 119.186 47.7898C118.985 47.589 118.885 47.3485 118.885 47.0682C118.885 46.7879 118.985 46.5473 119.186 46.3466C119.387 46.1458 119.627 46.0455 119.908 46.0455C120.188 46.0455 120.429 46.1458 120.629 46.3466C120.83 46.5473 120.93 46.7879 120.93 47.0682C120.93 47.2538 120.883 47.4242 120.788 47.5795C120.697 47.7348 120.574 47.8598 120.419 47.9545C120.268 48.0455 120.097 48.0909 119.908 48.0909ZM126.882 48.1818C126.064 48.1818 125.359 47.9886 124.768 47.6023C124.178 47.2159 123.723 46.6837 123.405 46.0057C123.087 45.3277 122.928 44.553 122.928 43.6818C122.928 42.7955 123.09 42.0133 123.416 41.3352C123.746 40.6534 124.204 40.1212 124.791 39.7386C125.382 39.3523 126.071 39.1591 126.859 39.1591C127.473 39.1591 128.026 39.2727 128.518 39.5C129.011 39.7273 129.414 40.0455 129.729 40.4545C130.043 40.8636 130.238 41.3409 130.314 41.8864H128.973C128.871 41.4886 128.643 41.1364 128.291 40.8295C127.943 40.5189 127.473 40.3636 126.882 40.3636C126.359 40.3636 125.901 40.5 125.507 40.7727C125.117 41.0417 124.812 41.4223 124.592 41.9148C124.376 42.4034 124.268 42.9773 124.268 43.6364C124.268 44.3106 124.375 44.8977 124.587 45.3977C124.803 45.8977 125.106 46.286 125.496 46.5625C125.89 46.839 126.352 46.9773 126.882 46.9773C127.231 46.9773 127.547 46.9167 127.831 46.7955C128.115 46.6742 128.356 46.5 128.553 46.2727C128.75 46.0455 128.89 45.7727 128.973 45.4545H130.314C130.238 45.9697 130.051 46.4337 129.751 46.8466C129.456 47.2557 129.064 47.5814 128.575 47.8239C128.09 48.0625 127.526 48.1818 126.882 48.1818ZM135.82 48.1818C135.032 48.1818 134.34 47.9943 133.746 47.6193C133.155 47.2443 132.693 46.7197 132.359 46.0455C132.03 45.3712 131.865 44.5833 131.865 43.6818C131.865 42.7727 132.03 41.9792 132.359 41.3011C132.693 40.6231 133.155 40.0966 133.746 39.7216C134.34 39.3466 135.032 39.1591 135.82 39.1591C136.607 39.1591 137.297 39.3466 137.888 39.7216C138.482 40.0966 138.945 40.6231 139.274 41.3011C139.607 41.9792 139.774 42.7727 139.774 43.6818C139.774 44.5833 139.607 45.3712 139.274 46.0455C138.945 46.7197 138.482 47.2443 137.888 47.6193C137.297 47.9943 136.607 48.1818 135.82 48.1818ZM135.82 46.9773C136.418 46.9773 136.911 46.8239 137.297 46.517C137.683 46.2102 137.969 45.8068 138.155 45.3068C138.34 44.8068 138.433 44.2652 138.433 43.6818C138.433 43.0985 138.34 42.5549 138.155 42.0511C137.969 41.5473 137.683 41.1402 137.297 40.8295C136.911 40.5189 136.418 40.3636 135.82 40.3636C135.221 40.3636 134.729 40.5189 134.342 40.8295C133.956 41.1402 133.67 41.5473 133.484 42.0511C133.299 42.5549 133.206 43.0985 133.206 43.6818C133.206 44.2652 133.299 44.8068 133.484 45.3068C133.67 45.8068 133.956 46.2102 134.342 46.517C134.729 46.8239 135.221 46.9773 135.82 46.9773ZM141.821 48V39.2727H143.116V40.6364H143.23C143.412 40.1705 143.705 39.8087 144.111 39.5511C144.516 39.2898 145.003 39.1591 145.571 39.1591C146.147 39.1591 146.626 39.2898 147.009 39.5511C147.395 39.8087 147.696 40.1705 147.912 40.6364H148.003C148.226 40.1856 148.562 39.8277 149.009 39.5625C149.455 39.2936 149.991 39.1591 150.616 39.1591C151.397 39.1591 152.035 39.4034 152.531 39.892C153.027 40.3769 153.276 41.1326 153.276 42.1591V48H151.935V42.1591C151.935 41.5152 151.759 41.0549 151.406 40.7784C151.054 40.5019 150.639 40.3636 150.162 40.3636C149.548 40.3636 149.073 40.5492 148.736 40.9205C148.399 41.2879 148.23 41.7538 148.23 42.3182V48H146.866V42.0227C146.866 41.5265 146.705 41.1269 146.384 40.8239C146.062 40.517 145.647 40.3636 145.139 40.3636C144.791 40.3636 144.465 40.4564 144.162 40.642C143.863 40.8277 143.62 41.0852 143.435 41.4148C143.253 41.7405 143.162 42.1174 143.162 42.5455V48H141.821ZM168.5 48.1591C167.644 48.1591 166.915 47.9261 166.312 47.4602C165.71 46.9905 165.25 46.3106 164.932 45.4205C164.614 44.5265 164.455 43.447 164.455 42.1818C164.455 40.9242 164.614 39.8504 164.932 38.9602C165.254 38.0663 165.716 37.3845 166.318 36.9148C166.924 36.4413 167.652 36.2045 168.5 36.2045C169.348 36.2045 170.074 36.4413 170.676 36.9148C171.282 37.3845 171.744 38.0663 172.062 38.9602C172.384 39.8504 172.545 40.9242 172.545 42.1818C172.545 43.447 172.386 44.5265 172.068 45.4205C171.75 46.3106 171.29 46.9905 170.688 47.4602C170.085 47.9261 169.356 48.1591 168.5 48.1591ZM168.5 46.9091C169.348 46.9091 170.008 46.5 170.477 45.6818C170.947 44.8636 171.182 43.697 171.182 42.1818C171.182 41.1742 171.074 40.3163 170.858 39.608C170.646 38.8996 170.339 38.3598 169.938 37.9886C169.54 37.6174 169.061 37.4318 168.5 37.4318C167.659 37.4318 167.002 37.8466 166.528 38.6761C166.055 39.5019 165.818 40.6705 165.818 42.1818C165.818 43.1894 165.924 44.0455 166.136 44.75C166.348 45.4545 166.653 45.9905 167.051 46.358C167.453 46.7254 167.936 46.9091 168.5 46.9091ZM174.705 48V46.9773L178.545 42.7727C178.996 42.2803 179.367 41.8523 179.659 41.4886C179.951 41.1212 180.167 40.7765 180.307 40.4545C180.451 40.1288 180.523 39.7879 180.523 39.4318C180.523 39.0227 180.424 38.6686 180.227 38.3693C180.034 38.0701 179.769 37.839 179.432 37.6761C179.095 37.5133 178.716 37.4318 178.295 37.4318C177.848 37.4318 177.458 37.5246 177.125 37.7102C176.795 37.892 176.54 38.1477 176.358 38.4773C176.18 38.8068 176.091 39.1932 176.091 39.6364H174.75C174.75 38.9545 174.907 38.3561 175.222 37.8409C175.536 37.3258 175.964 36.9242 176.506 36.6364C177.051 36.3485 177.663 36.2045 178.341 36.2045C179.023 36.2045 179.627 36.3485 180.153 36.6364C180.68 36.9242 181.093 37.3125 181.392 37.8011C181.691 38.2898 181.841 38.8333 181.841 39.4318C181.841 39.8598 181.763 40.2784 181.608 40.6875C181.456 41.0928 181.191 41.5455 180.812 42.0455C180.438 42.5417 179.917 43.1477 179.25 43.8636L176.636 46.6591V46.75H182.045V48H174.705ZM188.188 48.1591C187.331 48.1591 186.602 47.9261 186 47.4602C185.398 46.9905 184.938 46.3106 184.619 45.4205C184.301 44.5265 184.142 43.447 184.142 42.1818C184.142 40.9242 184.301 39.8504 184.619 38.9602C184.941 38.0663 185.403 37.3845 186.006 36.9148C186.612 36.4413 187.339 36.2045 188.188 36.2045C189.036 36.2045 189.761 36.4413 190.364 36.9148C190.97 37.3845 191.432 38.0663 191.75 38.9602C192.072 39.8504 192.233 40.9242 192.233 42.1818C192.233 43.447 192.074 44.5265 191.756 45.4205C191.438 46.3106 190.977 46.9905 190.375 47.4602C189.773 47.9261 189.044 48.1591 188.188 48.1591ZM188.188 46.9091C189.036 46.9091 189.695 46.5 190.165 45.6818C190.634 44.8636 190.869 43.697 190.869 42.1818C190.869 41.1742 190.761 40.3163 190.545 39.608C190.333 38.8996 190.027 38.3598 189.625 37.9886C189.227 37.6174 188.748 37.4318 188.188 37.4318C187.347 37.4318 186.689 37.8466 186.216 38.6761C185.742 39.5019 185.506 40.6705 185.506 42.1818C185.506 43.1894 185.612 44.0455 185.824 44.75C186.036 45.4545 186.341 45.9905 186.739 46.358C187.14 46.7254 187.623 46.9091 188.188 46.9091ZM199.256 48L204.46 37.7045V37.6136H198.46V36.3636H205.915V37.6818L200.733 48H199.256ZM211.581 36.2045C212.058 36.2083 212.536 36.2992 213.013 36.4773C213.49 36.6553 213.926 36.9508 214.32 37.3636C214.714 37.7727 215.03 38.3314 215.268 39.0398C215.507 39.7481 215.626 40.6364 215.626 41.7045C215.626 42.7386 215.528 43.6572 215.331 44.4602C215.138 45.2595 214.857 45.9337 214.49 46.483C214.126 47.0322 213.683 47.4489 213.161 47.733C212.642 48.017 212.054 48.1591 211.399 48.1591C210.748 48.1591 210.166 48.0303 209.655 47.7727C209.147 47.5114 208.731 47.1496 208.405 46.6875C208.083 46.2216 207.876 45.6818 207.786 45.0682H209.172C209.297 45.6023 209.545 46.0436 209.916 46.392C210.291 46.7367 210.786 46.9091 211.399 46.9091C212.297 46.9091 213.005 46.517 213.524 45.733C214.047 44.9489 214.308 43.8409 214.308 42.4091H214.217C214.005 42.7273 213.753 43.0019 213.462 43.233C213.17 43.464 212.846 43.642 212.49 43.767C212.134 43.892 211.755 43.9545 211.354 43.9545C210.687 43.9545 210.075 43.7898 209.518 43.4602C208.965 43.1269 208.522 42.6705 208.189 42.0909C207.859 41.5076 207.695 40.8409 207.695 40.0909C207.695 39.3788 207.854 38.7273 208.172 38.1364C208.494 37.5417 208.945 37.0682 209.524 36.7159C210.107 36.3636 210.793 36.1932 211.581 36.2045ZM211.581 37.4545C211.104 37.4545 210.674 37.5739 210.291 37.8125C209.912 38.0473 209.611 38.3655 209.388 38.767C209.168 39.1648 209.058 39.6061 209.058 40.0909C209.058 40.5758 209.164 41.017 209.376 41.4148C209.592 41.8087 209.886 42.1231 210.257 42.358C210.632 42.589 211.058 42.7045 211.536 42.7045C211.895 42.7045 212.231 42.6345 212.541 42.4943C212.852 42.3504 213.123 42.1553 213.354 41.9091C213.589 41.6591 213.772 41.3769 213.905 41.0625C214.037 40.7443 214.104 40.4129 214.104 40.0682C214.104 39.6136 213.994 39.1875 213.774 38.7898C213.558 38.392 213.259 38.0701 212.876 37.8239C212.498 37.5777 212.066 37.4545 211.581 37.4545ZM221.565 36.2045C222.043 36.2083 222.52 36.2992 222.997 36.4773C223.474 36.6553 223.91 36.9508 224.304 37.3636C224.698 37.7727 225.014 38.3314 225.253 39.0398C225.491 39.7481 225.611 40.6364 225.611 41.7045C225.611 42.7386 225.512 43.6572 225.315 44.4602C225.122 45.2595 224.842 45.9337 224.474 46.483C224.111 47.0322 223.668 47.4489 223.145 47.733C222.626 48.017 222.039 48.1591 221.384 48.1591C220.732 48.1591 220.151 48.0303 219.639 47.7727C219.132 47.5114 218.715 47.1496 218.389 46.6875C218.067 46.2216 217.861 45.6818 217.77 45.0682H219.156C219.281 45.6023 219.529 46.0436 219.901 46.392C220.276 46.7367 220.77 46.9091 221.384 46.9091C222.281 46.9091 222.99 46.517 223.509 45.733C224.031 44.9489 224.293 43.8409 224.293 42.4091H224.202C223.99 42.7273 223.738 43.0019 223.446 43.233C223.154 43.464 222.83 43.642 222.474 43.767C222.118 43.892 221.74 43.9545 221.338 43.9545C220.671 43.9545 220.06 43.7898 219.503 43.4602C218.95 43.1269 218.507 42.6705 218.173 42.0909C217.844 41.5076 217.679 40.8409 217.679 40.0909C217.679 39.3788 217.838 38.7273 218.156 38.1364C218.478 37.5417 218.929 37.0682 219.509 36.7159C220.092 36.3636 220.777 36.1932 221.565 36.2045ZM221.565 37.4545C221.088 37.4545 220.658 37.5739 220.276 37.8125C219.897 38.0473 219.596 38.3655 219.372 38.767C219.152 39.1648 219.043 39.6061 219.043 40.0909C219.043 40.5758 219.149 41.017 219.361 41.4148C219.577 41.8087 219.87 42.1231 220.241 42.358C220.616 42.589 221.043 42.7045 221.52 42.7045C221.88 42.7045 222.215 42.6345 222.526 42.4943C222.836 42.3504 223.107 42.1553 223.338 41.9091C223.573 41.6591 223.757 41.3769 223.889 41.0625C224.022 40.7443 224.088 40.4129 224.088 40.0682C224.088 39.6136 223.978 39.1875 223.759 38.7898C223.543 38.392 223.243 38.0701 222.861 37.8239C222.482 37.5777 222.05 37.4545 221.565 37.4545ZM231.777 48.1591C231.027 48.1591 230.358 48.0303 229.771 47.7727C229.188 47.5152 228.724 47.1572 228.379 46.6989C228.038 46.2367 227.853 45.7008 227.822 45.0909H229.254C229.285 45.4659 229.413 45.7898 229.641 46.0625C229.868 46.3314 230.165 46.5398 230.533 46.6875C230.9 46.8352 231.307 46.9091 231.754 46.9091C232.254 46.9091 232.697 46.822 233.084 46.6477C233.47 46.4735 233.773 46.2311 233.993 45.9205C234.213 45.6098 234.322 45.25 234.322 44.8409C234.322 44.4129 234.216 44.036 234.004 43.7102C233.792 43.3807 233.482 43.1231 233.072 42.9375C232.663 42.7519 232.163 42.6591 231.572 42.6591H230.641V41.4091H231.572C232.035 41.4091 232.44 41.3258 232.788 41.1591C233.141 40.9924 233.415 40.7576 233.612 40.4545C233.813 40.1515 233.913 39.7955 233.913 39.3864C233.913 38.9924 233.826 38.6496 233.652 38.358C233.478 38.0663 233.232 37.839 232.913 37.6761C232.599 37.5133 232.228 37.4318 231.8 37.4318C231.398 37.4318 231.019 37.5057 230.663 37.6534C230.311 37.7973 230.023 38.0076 229.8 38.2841C229.576 38.5568 229.455 38.8864 229.436 39.2727H228.072C228.095 38.6629 228.279 38.1288 228.624 37.6705C228.968 37.2083 229.419 36.8485 229.976 36.5909C230.536 36.3333 231.152 36.2045 231.822 36.2045C232.542 36.2045 233.16 36.3504 233.675 36.642C234.19 36.9299 234.586 37.3106 234.862 37.7841C235.139 38.2576 235.277 38.7689 235.277 39.3182C235.277 39.9735 235.105 40.5322 234.76 40.9943C234.419 41.4564 233.955 41.7765 233.368 41.9545V42.0455C234.103 42.1667 234.677 42.4792 235.089 42.983C235.502 43.483 235.709 44.1023 235.709 44.8409C235.709 45.4735 235.536 46.0417 235.192 46.5455C234.851 47.0455 234.385 47.4394 233.794 47.7273C233.203 48.0152 232.531 48.1591 231.777 48.1591ZM242.533 48V46.9773L246.374 42.7727C246.824 42.2803 247.196 41.8523 247.487 41.4886C247.779 41.1212 247.995 40.7765 248.135 40.4545C248.279 40.1288 248.351 39.7879 248.351 39.4318C248.351 39.0227 248.252 38.6686 248.055 38.3693C247.862 38.0701 247.597 37.839 247.26 37.6761C246.923 37.5133 246.544 37.4318 246.124 37.4318C245.677 37.4318 245.286 37.5246 244.953 37.7102C244.624 37.892 244.368 38.1477 244.186 38.4773C244.008 38.8068 243.919 39.1932 243.919 39.6364H242.578C242.578 38.9545 242.735 38.3561 243.05 37.8409C243.364 37.3258 243.792 36.9242 244.334 36.6364C244.879 36.3485 245.491 36.2045 246.169 36.2045C246.851 36.2045 247.455 36.3485 247.982 36.6364C248.508 36.9242 248.921 37.3125 249.22 37.8011C249.519 38.2898 249.669 38.8333 249.669 39.4318C249.669 39.8598 249.591 40.2784 249.436 40.6875C249.285 41.0928 249.019 41.5455 248.641 42.0455C248.266 42.5417 247.745 43.1477 247.078 43.8636L244.464 46.6591V46.75H249.874V48H242.533ZM255.925 36.2045C256.402 36.2083 256.879 36.2992 257.357 36.4773C257.834 36.6553 258.269 36.9508 258.663 37.3636C259.057 37.7727 259.374 38.3314 259.612 39.0398C259.851 39.7481 259.97 40.6364 259.97 41.7045C259.97 42.7386 259.872 43.6572 259.675 44.4602C259.482 45.2595 259.201 45.9337 258.834 46.483C258.47 47.0322 258.027 47.4489 257.504 47.733C256.985 48.017 256.398 48.1591 255.743 48.1591C255.091 48.1591 254.51 48.0303 253.999 47.7727C253.491 47.5114 253.074 47.1496 252.749 46.6875C252.427 46.2216 252.22 45.6818 252.129 45.0682H253.516C253.641 45.6023 253.889 46.0436 254.26 46.392C254.635 46.7367 255.129 46.9091 255.743 46.9091C256.641 46.9091 257.349 46.517 257.868 45.733C258.391 44.9489 258.652 43.8409 258.652 42.4091H258.561C258.349 42.7273 258.097 43.0019 257.805 43.233C257.514 43.464 257.19 43.642 256.834 43.767C256.478 43.892 256.099 43.9545 255.697 43.9545C255.031 43.9545 254.419 43.7898 253.862 43.4602C253.309 43.1269 252.866 42.6705 252.533 42.0909C252.203 41.5076 252.038 40.8409 252.038 40.0909C252.038 39.3788 252.197 38.7273 252.516 38.1364C252.838 37.5417 253.288 37.0682 253.868 36.7159C254.451 36.3636 255.137 36.1932 255.925 36.2045ZM255.925 37.4545C255.447 37.4545 255.018 37.5739 254.635 37.8125C254.256 38.0473 253.955 38.3655 253.732 38.767C253.512 39.1648 253.402 39.6061 253.402 40.0909C253.402 40.5758 253.508 41.017 253.72 41.4148C253.936 41.8087 254.23 42.1231 254.601 42.358C254.976 42.589 255.402 42.7045 255.879 42.7045C256.239 42.7045 256.574 42.6345 256.885 42.4943C257.196 42.3504 257.466 42.1553 257.697 41.9091C257.932 41.6591 258.116 41.3769 258.249 41.0625C258.381 40.7443 258.447 40.4129 258.447 40.0682C258.447 39.6136 258.338 39.1875 258.118 38.7898C257.902 38.392 257.603 38.0701 257.22 37.8239C256.841 37.5777 256.41 37.4545 255.925 37.4545ZM266 48.1591C265.144 48.1591 264.415 47.9261 263.812 47.4602C263.21 46.9905 262.75 46.3106 262.432 45.4205C262.114 44.5265 261.955 43.447 261.955 42.1818C261.955 40.9242 262.114 39.8504 262.432 38.9602C262.754 38.0663 263.216 37.3845 263.818 36.9148C264.424 36.4413 265.152 36.2045 266 36.2045C266.848 36.2045 267.574 36.4413 268.176 36.9148C268.782 37.3845 269.244 38.0663 269.562 38.9602C269.884 39.8504 270.045 40.9242 270.045 42.1818C270.045 43.447 269.886 44.5265 269.568 45.4205C269.25 46.3106 268.79 46.9905 268.188 47.4602C267.585 47.9261 266.856 48.1591 266 48.1591ZM266 46.9091C266.848 46.9091 267.508 46.5 267.977 45.6818C268.447 44.8636 268.682 43.697 268.682 42.1818C268.682 41.1742 268.574 40.3163 268.358 39.608C268.146 38.8996 267.839 38.3598 267.438 37.9886C267.04 37.6174 266.561 37.4318 266 37.4318C265.159 37.4318 264.502 37.8466 264.028 38.6761C263.555 39.5019 263.318 40.6705 263.318 42.1818C263.318 43.1894 263.424 44.0455 263.636 44.75C263.848 45.4545 264.153 45.9905 264.551 46.358C264.953 46.7254 265.436 46.9091 266 46.9091ZM275.841 48.1591C275.174 48.1591 274.574 48.0265 274.04 47.7614C273.506 47.4962 273.078 47.1326 272.756 46.6705C272.434 46.2083 272.258 45.6818 272.227 45.0909H273.591C273.644 45.6174 273.883 46.053 274.307 46.3977C274.735 46.7386 275.246 46.9091 275.841 46.9091C276.318 46.9091 276.742 46.7973 277.114 46.5739C277.489 46.3504 277.782 46.0436 277.994 45.6534C278.21 45.2595 278.318 44.8144 278.318 44.3182C278.318 43.8106 278.206 43.358 277.983 42.9602C277.763 42.5587 277.46 42.2424 277.074 42.0114C276.688 41.7803 276.246 41.6629 275.75 41.6591C275.394 41.6553 275.028 41.7102 274.653 41.8239C274.278 41.9337 273.97 42.0758 273.727 42.25L272.409 42.0909L273.114 36.3636H279.159V37.6136H274.295L273.886 41.0455H273.955C274.193 40.8561 274.492 40.6989 274.852 40.5739C275.212 40.4489 275.587 40.3864 275.977 40.3864C276.689 40.3864 277.324 40.5568 277.881 40.8977C278.441 41.2348 278.881 41.697 279.199 42.2841C279.521 42.8712 279.682 43.5417 279.682 44.2955C279.682 45.0379 279.515 45.7008 279.182 46.2841C278.852 46.8636 278.398 47.322 277.818 47.6591C277.239 47.9924 276.58 48.1591 275.841 48.1591Z" fill="white"/>
</svg>
